<?xml version="1.0" encoding="UTF-8" standalone="no"?>
<!DOCTYPE svg PUBLIC "-//W3C//DTD SVG 1.1//EN" "http://www.w3.org/Graphics/SVG/1.1/DTD/svg11.dtd">
<svg width="100%" height="100%" viewBox="0 0 160 45" version="1.1" xmlns="http://www.w3.org/2000/svg" xmlns:xlink="http://www.w3.org/1999/xlink" xml:space="preserve" style="fill-rule:evenodd;clip-rule:evenodd;stroke-linecap:round;stroke-linejoin:round;stroke-miterlimit:1.5;">
    <g transform="matrix(0.985548,0,0,0.957273,1.18819,1.06664)">
        <path d="M159.851,22.404C159.851,10.11 150.156,0.128 138.215,0.128L21.704,0.128C9.763,0.128 0.068,10.11 0.068,22.404C0.068,34.698 9.763,44.679 21.704,44.679L138.215,44.679C150.156,44.679 159.851,34.698 159.851,22.404Z" style="fill:rgb(235,235,235);stroke:rgb(151,194,73);stroke-width:2.06px;"/>
    </g>
    <g transform="matrix(1,0,0,1,-1.28284,-2.35607)">
        <circle cx="137.55" cy="25.05" r="15.828" style="fill:rgb(151,194,73);"/>
    </g>
    <g transform="matrix(1.57503,0,0,2.24979,-46.6049,-21.1578)">
        <path d="M42.155,14.813L45.589,14.813C46.268,14.813 46.775,14.841 47.109,14.898C47.443,14.954 47.742,15.073 48.006,15.252C48.269,15.432 48.489,15.671 48.665,15.97C48.841,16.269 48.928,16.604 48.928,16.975C48.928,17.377 48.82,17.746 48.603,18.082C48.386,18.418 48.092,18.67 47.721,18.838C48.245,18.991 48.647,19.25 48.928,19.618C49.21,19.985 49.35,20.416 49.35,20.912C49.35,21.303 49.259,21.683 49.078,22.052C48.896,22.421 48.648,22.716 48.334,22.937C48.019,23.158 47.632,23.293 47.171,23.344C46.882,23.375 46.184,23.395 45.079,23.403L42.155,23.403L42.155,14.813ZM43.889,16.243L43.889,18.229L45.026,18.229C45.702,18.229 46.122,18.219 46.286,18.2C46.583,18.164 46.816,18.062 46.986,17.892C47.156,17.722 47.241,17.498 47.241,17.221C47.241,16.955 47.168,16.74 47.021,16.574C46.875,16.408 46.657,16.307 46.368,16.272C46.196,16.252 45.702,16.243 44.885,16.243L43.889,16.243ZM43.889,19.659L43.889,21.955L45.495,21.955C46.12,21.955 46.516,21.938 46.684,21.903C46.942,21.856 47.152,21.742 47.314,21.56C47.476,21.378 47.557,21.135 47.557,20.83C47.557,20.573 47.495,20.354 47.37,20.174C47.245,19.995 47.064,19.864 46.828,19.782C46.592,19.7 46.079,19.659 45.29,19.659L43.889,19.659Z" style="fill:rgb(151,194,73);fill-rule:nonzero;"/>
        <path d="M50.803,14.813L52.538,14.813L52.538,19.465C52.538,20.204 52.559,20.682 52.602,20.901C52.676,21.252 52.853,21.535 53.133,21.747C53.412,21.96 53.794,22.067 54.278,22.067C54.77,22.067 55.141,21.966 55.391,21.765C55.641,21.564 55.792,21.317 55.842,21.024C55.893,20.731 55.919,20.245 55.919,19.565L55.919,14.813L57.653,14.813L57.653,19.325C57.653,20.356 57.606,21.084 57.512,21.51C57.419,21.936 57.246,22.295 56.994,22.588C56.742,22.881 56.405,23.115 55.983,23.288C55.561,23.462 55.01,23.549 54.331,23.549C53.51,23.549 52.888,23.454 52.465,23.265C52.041,23.076 51.706,22.829 51.46,22.527C51.214,22.224 51.051,21.907 50.973,21.575C50.86,21.082 50.803,20.356 50.803,19.395L50.803,14.813Z" style="fill:rgb(151,194,73);fill-rule:nonzero;"/>
        <path d="M61.737,23.403L61.737,19.787L58.591,14.813L60.624,14.813L62.645,18.211L64.626,14.813L66.624,14.813L63.466,19.799L63.466,23.403L61.737,23.403Z" style="fill:rgb(151,194,73);fill-rule:nonzero;"/>
        <path d="M70.62,23.403L70.62,14.813L72.307,14.813L75.823,20.549L75.823,14.813L77.434,14.813L77.434,23.403L75.694,23.403L72.231,17.801L72.231,23.403L70.62,23.403Z" style="fill:rgb(151,194,73);fill-rule:nonzero;"/>
        <path d="M78.917,19.161C78.917,18.286 79.048,17.551 79.309,16.957C79.505,16.52 79.771,16.127 80.109,15.78C80.447,15.432 80.817,15.174 81.219,15.006C81.755,14.78 82.372,14.666 83.071,14.666C84.337,14.666 85.349,15.059 86.109,15.844C86.869,16.629 87.249,17.721 87.249,19.12C87.249,20.506 86.872,21.591 86.118,22.374C85.364,23.158 84.356,23.549 83.094,23.549C81.817,23.549 80.801,23.16 80.048,22.38C79.294,21.601 78.917,20.528 78.917,19.161ZM80.704,19.102C80.704,20.075 80.928,20.812 81.378,21.314C81.827,21.816 82.397,22.067 83.089,22.067C83.78,22.067 84.347,21.818 84.791,21.32C85.234,20.822 85.456,20.075 85.456,19.079C85.456,18.094 85.24,17.36 84.808,16.875C84.377,16.391 83.803,16.149 83.089,16.149C82.374,16.149 81.798,16.394 81.36,16.884C80.923,17.374 80.704,18.114 80.704,19.102Z" style="fill:rgb(151,194,73);fill-rule:nonzero;"/>
        <path d="M89.821,23.403L87.77,14.813L89.546,14.813L90.841,20.713L92.411,14.813L94.473,14.813L95.979,20.813L97.298,14.813L99.044,14.813L96.958,23.403L95.118,23.403L93.407,16.981L91.702,23.403L89.821,23.403Z" style="fill:rgb(151,194,73);fill-rule:nonzero;"/>
        <path d="M100.561,21.188L100.134,16.829L100.134,14.813L101.915,14.813L101.915,16.829L101.493,21.188L100.561,21.188ZM100.204,23.403L100.204,21.756L101.85,21.756L101.85,23.403L100.204,23.403Z" style="fill:rgb(151,194,73);fill-rule:nonzero;"/>
    </g>
    <g transform="matrix(2.33414,0,0,3.5396,-179.508,-39.0617)">
        <path d="M133.345,20.623L133.345,18.965L137.458,17.348L133.345,15.748L133.345,14.102L139.239,16.651L139.239,18.057L133.345,20.623Z" style="fill:rgb(235,235,235);fill-rule:nonzero;"/>
    </g>
</svg>
